<?xml version="1.0" encoding="UTF-8" standalone="no"?>
<!DOCTYPE svg PUBLIC "-//W3C//DTD SVG 1.1//EN"
 "http://www.w3.org/Graphics/SVG/1.1/DTD/svg11.dtd">
<!-- Generated by graphviz version 2.42.4 (0)
 -->
<!-- Title: G Pages: 1 -->
<svg width="1154pt" height="74pt"
 viewBox="0.00 0.00 1154.00 74.00" xmlns="http://www.w3.org/2000/svg" xmlns:xlink="http://www.w3.org/1999/xlink">
<g id="graph0" class="graph" transform="scale(1 1) rotate(0) translate(18 56)">
<title>G</title>
<!-- trial -->
<g id="node1" class="node">
<title>trial</title>
<path fill="none" stroke="black" d="M101,-37C101,-37 12,-37 12,-37 6,-37 0,-31 0,-25 0,-25 0,-13 0,-13 0,-7 6,-1 12,-1 12,-1 101,-1 101,-1 107,-1 113,-7 113,-13 113,-13 113,-25 113,-25 113,-31 107,-37 101,-37"/>
<text text-anchor="middle" x="56.5" y="-16.2" font-family="Arial" font-size="11.00">DORA clinical trial</text>
</g>
<!-- measured -->
<g id="node2" class="node">
<title>measured</title>
<path fill="none" stroke="black" d="M336,-38C336,-38 161,-38 161,-38 155,-38 149,-32 149,-26 149,-26 149,-12 149,-12 149,-6 155,0 161,0 161,0 336,0 336,0 342,0 348,-6 348,-12 348,-12 348,-26 348,-26 348,-32 342,-38 336,-38"/>
<text text-anchor="middle" x="248.5" y="-22.2" font-family="Arial" font-size="11.00">Defined participants, dose, duration,</text>
<text text-anchor="middle" x="248.5" y="-10.2" font-family="Arial" font-size="11.00">questionnaire, and run&#45;out period</text>
</g>
<!-- trial&#45;&gt;measured -->
<g id="edge1" class="edge">
<title>trial&#45;&gt;measured</title>
<path fill="none" stroke="black" d="M113.22,-19C121.42,-19 130.08,-19 138.91,-19"/>
<polygon fill="black" stroke="black" points="138.93,-22.5 148.93,-19 138.93,-15.5 138.93,-22.5"/>
</g>
<!-- nondetect -->
<g id="node3" class="node">
<title>nondetect</title>
<path fill="none" stroke="black" d="M582,-38C582,-38 396,-38 396,-38 390,-38 384,-32 384,-26 384,-26 384,-12 384,-12 384,-6 390,0 396,0 396,0 582,0 582,0 588,0 594,-6 594,-12 594,-12 594,-26 594,-26 594,-32 588,-38 582,-38"/>
<text text-anchor="middle" x="489" y="-22.2" font-family="Arial" font-size="11.00">No clear withdrawal or rebound</text>
<text text-anchor="middle" x="489" y="-10.2" font-family="Arial" font-size="11.00">signal detected under those conditions</text>
</g>
<!-- measured&#45;&gt;nondetect -->
<g id="edge2" class="edge">
<title>measured&#45;&gt;nondetect</title>
<path fill="none" stroke="black" d="M348.23,-19C356.7,-19 365.32,-19 373.9,-19"/>
<polygon fill="black" stroke="black" points="373.95,-22.5 383.95,-19 373.95,-15.5 373.95,-22.5"/>
</g>
<!-- notprove -->
<g id="node4" class="node">
<title>notprove</title>
<path fill="none" stroke="black" d="M859,-38C859,-38 642,-38 642,-38 636,-38 630,-32 630,-26 630,-26 630,-12 630,-12 630,-6 636,0 642,0 642,0 859,0 859,0 865,0 871,-6 871,-12 871,-12 871,-26 871,-26 871,-32 865,-38 859,-38"/>
<text text-anchor="middle" x="750.5" y="-22.2" font-family="Arial" font-size="11.00">Does not prove zero risk for every person,</text>
<text text-anchor="middle" x="750.5" y="-10.2" font-family="Arial" font-size="11.00">long&#45;term pattern, combination, or population</text>
</g>
<!-- nondetect&#45;&gt;notprove -->
<g id="edge3" class="edge">
<title>nondetect&#45;&gt;notprove</title>
<path fill="none" stroke="black" d="M594.05,-19C602.47,-19 611.03,-19 619.59,-19"/>
<polygon fill="black" stroke="black" points="619.63,-22.5 629.63,-19 619.63,-15.5 619.63,-22.5"/>
</g>
<!-- real -->
<g id="node5" class="node">
<title>real</title>
<path fill="none" stroke="black" d="M1106,-38C1106,-38 919,-38 919,-38 913,-38 907,-32 907,-26 907,-26 907,-12 907,-12 907,-6 913,0 919,0 919,0 1106,0 1106,0 1112,0 1118,-6 1118,-12 1118,-12 1118,-26 1118,-26 1118,-32 1112,-38 1106,-38"/>
<text text-anchor="middle" x="1012.5" y="-22.2" font-family="Arial" font-size="11.00">Use label wording, pharmacovigilance,</text>
<text text-anchor="middle" x="1012.5" y="-10.2" font-family="Arial" font-size="11.00">and new comparative studies</text>
</g>
<!-- notprove&#45;&gt;real -->
<g id="edge4" class="edge">
<title>notprove&#45;&gt;real</title>
<path fill="none" stroke="black" d="M871.23,-19C879.66,-19 888.15,-19 896.56,-19"/>
<polygon fill="black" stroke="black" points="896.76,-22.5 906.76,-19 896.76,-15.5 896.76,-22.5"/>
</g>
</g>
</svg>
