<?xml version="1.0" encoding="UTF-8" standalone="no"?>
<!DOCTYPE svg PUBLIC "-//W3C//DTD SVG 1.1//EN"
 "http://www.w3.org/Graphics/SVG/1.1/DTD/svg11.dtd">
<!-- Generated by graphviz version 2.42.4 (0)
 -->
<!-- Title: G Pages: 1 -->
<svg width="355pt" height="568pt"
 viewBox="0.00 0.00 355.00 568.00" xmlns="http://www.w3.org/2000/svg" xmlns:xlink="http://www.w3.org/1999/xlink">
<g id="graph0" class="graph" transform="scale(1 1) rotate(0) translate(18 550)">
<title>G</title>
<!-- start -->
<g id="node1" class="node">
<title>start</title>
<path fill="none" stroke="black" d="M249,-532C249,-532 147,-532 147,-532 141,-532 135,-526 135,-520 135,-520 135,-508 135,-508 135,-502 141,-496 147,-496 147,-496 249,-496 249,-496 255,-496 261,-502 261,-508 261,-508 261,-520 261,-520 261,-526 255,-532 249,-532"/>
<text text-anchor="middle" x="198" y="-511.2" font-family="Arial" font-size="11.00">Need a smaller dose</text>
</g>
<!-- identify -->
<g id="node2" class="node">
<title>identify</title>
<path fill="none" stroke="black" d="M274.5,-459C274.5,-459 121.5,-459 121.5,-459 115.5,-459 109.5,-453 109.5,-447 109.5,-447 109.5,-433 109.5,-433 109.5,-427 115.5,-421 121.5,-421 121.5,-421 274.5,-421 274.5,-421 280.5,-421 286.5,-427 286.5,-433 286.5,-433 286.5,-447 286.5,-447 286.5,-453 280.5,-459 274.5,-459"/>
<text text-anchor="middle" x="198" y="-443.2" font-family="Arial" font-size="11.00">Identify exact product, strength,</text>
<text text-anchor="middle" x="198" y="-431.2" font-family="Arial" font-size="11.00">release type, and country</text>
</g>
<!-- start&#45;&gt;identify -->
<g id="edge1" class="edge">
<title>start&#45;&gt;identify</title>
<path fill="none" stroke="black" d="M198,-495.94C198,-487.99 198,-478.31 198,-469.31"/>
<polygon fill="black" stroke="black" points="201.5,-469.2 198,-459.2 194.5,-469.2 201.5,-469.2"/>
</g>
<!-- modified -->
<g id="node3" class="node">
<title>modified</title>
<path fill="none" stroke="black" d="M186.55,-380.4C186.55,-380.4 88.45,-349.6 88.45,-349.6 82.72,-347.8 82.72,-344.2 88.45,-342.4 88.45,-342.4 186.55,-311.6 186.55,-311.6 192.28,-309.8 203.72,-309.8 209.45,-311.6 209.45,-311.6 307.55,-342.4 307.55,-342.4 313.28,-344.2 313.28,-347.8 307.55,-349.6 307.55,-349.6 209.45,-380.4 209.45,-380.4 203.72,-382.2 192.28,-382.2 186.55,-380.4"/>
<text text-anchor="middle" x="198" y="-349.2" font-family="Arial" font-size="11.00">Modified&#45;, delayed&#45;,</text>
<text text-anchor="middle" x="198" y="-337.2" font-family="Arial" font-size="11.00">or enteric&#45;release?</text>
</g>
<!-- identify&#45;&gt;modified -->
<g id="edge2" class="edge">
<title>identify&#45;&gt;modified</title>
<path fill="none" stroke="black" d="M198,-420.82C198,-413.13 198,-403.78 198,-394.35"/>
<polygon fill="black" stroke="black" points="201.5,-394.16 198,-384.16 194.5,-394.16 201.5,-394.16"/>
</g>
<!-- label -->
<g id="node4" class="node">
<title>label</title>
<path fill="none" stroke="black" d="M188,-261C188,-261 12,-261 12,-261 6,-261 0,-255 0,-249 0,-249 0,-235 0,-235 0,-229 6,-223 12,-223 12,-223 188,-223 188,-223 194,-223 200,-229 200,-235 200,-235 200,-249 200,-249 200,-255 194,-261 188,-261"/>
<text text-anchor="middle" x="100" y="-245.2" font-family="Arial" font-size="11.00">Check product label and pharmacist</text>
<text text-anchor="middle" x="100" y="-233.2" font-family="Arial" font-size="11.00">before splitting, crushing, or opening</text>
</g>
<!-- modified&#45;&gt;label -->
<g id="edge3" class="edge">
<title>modified&#45;&gt;label</title>
<path fill="none" stroke="black" d="M170.44,-316.32C155.98,-301.26 138.41,-282.98 124.44,-268.44"/>
<polygon fill="black" stroke="black" points="126.95,-265.99 117.49,-261.21 121.9,-270.84 126.95,-265.99"/>
<text text-anchor="middle" x="174.5" y="-282" font-family="Arial" font-size="10.00">Yes or unsure</text>
</g>
<!-- options -->
<g id="node5" class="node">
<title>options</title>
<path fill="none" stroke="black" d="M280.5,-186C280.5,-186 55.5,-186 55.5,-186 49.5,-186 43.5,-180 43.5,-174 43.5,-174 43.5,-160 43.5,-160 43.5,-154 49.5,-148 55.5,-148 55.5,-148 280.5,-148 280.5,-148 286.5,-148 292.5,-154 292.5,-160 292.5,-160 292.5,-174 292.5,-174 292.5,-180 286.5,-186 280.5,-186"/>
<text text-anchor="middle" x="168" y="-170.2" font-family="Arial" font-size="11.00">Discuss licensed liquid, smaller strength,</text>
<text text-anchor="middle" x="168" y="-158.2" font-family="Arial" font-size="11.00">compounding, or product&#45;specific manipulation</text>
</g>
<!-- modified&#45;&gt;options -->
<g id="edge4" class="edge">
<title>modified&#45;&gt;options</title>
<path fill="none" stroke="black" d="M208.26,-311.02C214.08,-286.06 218.51,-251.66 209,-223 205.53,-212.55 199.22,-202.47 192.58,-193.86"/>
<polygon fill="black" stroke="black" points="195.24,-191.59 186.18,-186.1 189.83,-196.04 195.24,-191.59"/>
<text text-anchor="middle" x="220.5" y="-239.5" font-family="Arial" font-size="10.00">No</text>
</g>
<!-- label&#45;&gt;options -->
<g id="edge5" class="edge">
<title>label&#45;&gt;options</title>
<path fill="none" stroke="black" d="M116.81,-222.96C125.06,-214.09 135.15,-203.26 144.19,-193.56"/>
<polygon fill="black" stroke="black" points="146.89,-195.79 151.15,-186.09 141.77,-191.02 146.89,-195.79"/>
</g>
<!-- verify -->
<g id="node6" class="node">
<title>verify</title>
<path fill="none" stroke="black" d="M262.5,-111C262.5,-111 73.5,-111 73.5,-111 67.5,-111 61.5,-105 61.5,-99 61.5,-99 61.5,-85 61.5,-85 61.5,-79 67.5,-73 73.5,-73 73.5,-73 262.5,-73 262.5,-73 268.5,-73 274.5,-79 274.5,-85 274.5,-85 274.5,-99 274.5,-99 274.5,-105 268.5,-111 262.5,-111"/>
<text text-anchor="middle" x="168" y="-95.2" font-family="Arial" font-size="11.00">Verify measurement accuracy, storage,</text>
<text text-anchor="middle" x="168" y="-83.2" font-family="Arial" font-size="11.00">and dose uniformity</text>
</g>
<!-- options&#45;&gt;verify -->
<g id="edge6" class="edge">
<title>options&#45;&gt;verify</title>
<path fill="none" stroke="black" d="M168,-147.96C168,-139.88 168,-130.18 168,-121.18"/>
<polygon fill="black" stroke="black" points="171.5,-121.09 168,-111.09 164.5,-121.09 171.5,-121.09"/>
</g>
<!-- record -->
<g id="node7" class="node">
<title>record</title>
<path fill="none" stroke="black" d="M235.5,-36C235.5,-36 100.5,-36 100.5,-36 94.5,-36 88.5,-30 88.5,-24 88.5,-24 88.5,-12 88.5,-12 88.5,-6 94.5,0 100.5,0 100.5,0 235.5,0 235.5,0 241.5,0 247.5,-6 247.5,-12 247.5,-12 247.5,-24 247.5,-24 247.5,-30 241.5,-36 235.5,-36"/>
<text text-anchor="middle" x="168" y="-15.2" font-family="Arial" font-size="11.00">Record method consistently</text>
</g>
<!-- verify&#45;&gt;record -->
<g id="edge7" class="edge">
<title>verify&#45;&gt;record</title>
<path fill="none" stroke="black" d="M168,-72.83C168,-64.89 168,-55.41 168,-46.63"/>
<polygon fill="black" stroke="black" points="171.5,-46.42 168,-36.42 164.5,-46.42 171.5,-46.42"/>
</g>
</g>
</svg>
